<svg xmlns="http://www.w3.org/2000/svg" viewBox="0 0 600 600" role="img" aria-label="DAVA Resource Studio">
  <defs>
    <linearGradient id="background" x1="0" y1="1" x2="1" y2="0">
      <stop offset="0" stop-color="#2f0039" />
      <stop offset="1" stop-color="#a60000" />
    </linearGradient>
  </defs>
  <rect x="45" y="45" width="510" height="510" rx="80" fill="url(#background)" />
  <path d="M166 150h65c20 0 30 7 42 24l18 25c8 11 14 1 26 1h116c21 0 34 14 34 34v166c0 20-14 33-34 33H166c-20 0-33-13-33-33V184c0-21 13-34 33-34Z" fill="none" stroke="#fff" stroke-width="38" stroke-linejoin="round" />
  <path d="M233 266v67M300 266v33M367 266v101" fill="none" stroke="#fff" stroke-width="38" stroke-linecap="round" />
</svg>
